<svg xmlns="http://www.w3.org/2000/svg" width="22.97" height="23" viewBox="0 0 22.97 23">
  <defs>
    <style>
      .cls-1 {
        fill: #fff;
        fill-rule: evenodd;
      }
    </style>
  </defs>
  <path id="icn_tel.svg" class="cls-1" d="M1382.36,7161.71a2.421,2.421,0,0,0-1.75-.8,2.515,2.515,0,0,0-1.77.8l-1.63,1.62c-0.14-.07-0.27-0.14-0.4-0.21q-0.285-.135-0.51-0.27a17.577,17.577,0,0,1-4.26-3.86,10.165,10.165,0,0,1-1.4-2.2c0.42-.38.82-0.78,1.2-1.17,0.14-.15.29-0.29,0.43-0.44a2.347,2.347,0,0,0,0-3.56l-1.41-1.41c-0.16-.16-0.33-0.32-0.48-0.49-0.31-.32-0.64-0.65-0.97-0.96a2.5,2.5,0,0,0-1.74-.75,2.56,2.56,0,0,0-1.76.75c0,0.01,0,.01-0.01.01l-1.76,1.77a3.751,3.751,0,0,0-1.12,2.4,8.942,8.942,0,0,0,.66,3.82,22.216,22.216,0,0,0,3.96,6.57,24.491,24.491,0,0,0,8.11,6.32,12.642,12.642,0,0,0,4.56,1.34c0.11,0,.22.01,0.32,0.01a3.917,3.917,0,0,0,2.99-1.28c0-.01.02-0.01,0.02-0.02a11.4,11.4,0,0,1,.91-0.94c0.22-.21.45-0.43,0.67-0.66a2.573,2.573,0,0,0,.78-1.78,2.458,2.458,0,0,0-.8-1.77Zm1.85,5.43h0c-0.2.21-.4,0.41-0.63,0.62-0.33.32-.68,0.66-1,1.03a2.469,2.469,0,0,1-1.94.82h-0.24a11.3,11.3,0,0,1-4.04-1.21,22.958,22.958,0,0,1-7.64-5.95,21.008,21.008,0,0,1-3.72-6.18,7.291,7.291,0,0,1-.58-3.22,2.356,2.356,0,0,1,.71-1.53l1.77-1.76a1.188,1.188,0,0,1,.78-0.36,1.1,1.1,0,0,1,.76.36l0.01,0.01c0.32,0.3.62,0.6,0.94,0.92,0.16,0.17.32,0.33,0.49,0.5l1.41,1.41a0.982,0.982,0,0,1,0,1.6c-0.15.15-.29,0.3-0.44,0.44-0.44.44-.85,0.86-1.3,1.26-0.01.01-.02,0.01-0.03,0.02a1.066,1.066,0,0,0-.27,1.17c0.01,0.02.01,0.03,0.02,0.05a10.95,10.95,0,0,0,1.67,2.71v0.01a19.141,19.141,0,0,0,4.6,4.16,6.611,6.611,0,0,0,.64.34c0.18,0.1.36,0.19,0.51,0.28l0.06,0.03a1.1,1.1,0,0,0,.51.13,1.156,1.156,0,0,0,.79-0.35l1.77-1.76a1.174,1.174,0,0,1,.78-0.39,1.053,1.053,0,0,1,.75.38l0.01,0.01,2.85,2.83A1.024,1.024,0,0,1,1384.21,7167.14Z" transform="translate(-1363.03 -7148)"/>
</svg>
